<svg xmlns="http://www.w3.org/2000/svg" version="1.1" xmlns:xlink="http://www.w3.org/1999/xlink" xmlns:svgjs="http://svgjs.dev/svgjs" width="1000" height="214" viewBox="0 0 1000 214"><g transform="matrix(1,0,0,1,-0.6060606060606233,0.28176236643817276)"><svg viewBox="0 0 396 85" data-background-color="#ffffff" preserveAspectRatio="xMidYMid meet" height="214" width="1000" xmlns="http://www.w3.org/2000/svg" xmlns:xlink="http://www.w3.org/1999/xlink"><g id="tight-bounds" transform="matrix(1,0,0,1,0.2400000000000091,-0.11191495863198497)"><svg viewBox="0 0 395.52 85.22382991726396" height="85.22382991726396" width="395.52"><g><svg viewBox="0 0 528.9683296770282 113.97832463595839" height="85.22382991726396" width="395.52"><g transform="matrix(1,0,0,1,133.44832967702823,15.75243126300149)"><svg viewBox="0 0 395.52 82.4734621099554" height="82.4734621099554" width="395.52"><g id="textblocktransform"><svg viewBox="0 0 395.52 82.4734621099554" height="82.4734621099554" width="395.52" id="textblock"><g><svg viewBox="0 0 395.52 82.4734621099554" height="82.4734621099554" width="395.52"><g transform="matrix(1,0,0,1,0,0)"><svg width="395.52" viewBox="1.2 -31.8 201.88000000000002 42.1" height="82.4734621099554" data-palette-color="#222222"><g class="wordmark-text-0" data-fill-palette-color="primary" id="text-0"><path d="M4.85 4.1L4.85 4.1Q4.3 4.1 4.3 2.2L4.3 2.2Q4.3 1.5 4.4 0.95L4.4 0.95Q1.2-1.5 1.2-6.25L1.2-6.25Q1.2-9.85 3.25-14.4L3.25-14.4Q5.85-20.15 13.4-25.6L13.4-25.6Q22.1-31.8 31.4-31.8L31.4-31.8Q36.4-31.8 39-29.85 41.6-27.9 41.6-25L41.6-25Q41.6-23.2 40.2-20.55L40.2-20.55Q40.6-19.2 40.6-17.8L40.6-17.8Q40.6-11.55 34.2-5.85L34.2-5.85Q28.5-0.75 22.15 1.35L22.15 1.35Q32.3 8.65 35.85 8.65L35.85 8.65Q36.65 8.65 37.3 8.22 37.95 7.8 37.95 7.23 37.95 6.65 37.6 6.15L37.6 6.15Q37.45 5.8 37.45 5.6L37.45 5.6Q37.45 4.9 38.33 5.85 39.2 6.8 39.2 7.85 39.2 8.9 38.2 9.6 37.2 10.3 35.6 10.3L35.6 10.3Q30.4 10.3 19.05 2.25L19.05 2.25Q15.95 2.95 12.1 2.95 8.25 2.95 5.9 1.85L5.9 1.85Q5.2 4.1 4.85 4.1ZM39.55-22.05L39.55-22.05Q40.05-23.25 40.05-24.73 40.05-26.2 38.95-27.75L38.95-27.75Q36.8-30.75 31.35-30.75L31.35-30.75Q23.8-30.75 17.1-26.08 10.4-21.4 6.65-14.3L6.65-14.3Q3.9-9.15 3.9-5.05L3.9-5.05Q3.9-2.45 5-0.85L5-0.85Q5.55-2.2 6.35-3.3L6.35-3.3Q7.6-5.1 9.6-5.1 11.6-5.1 13.65-3.95L13.65-3.95Q16.35-2.5 20.55 0.25L20.55 0.25Q25.9-1.75 30.7-6L30.7-6Q37.05-11.6 37.6-16.85L37.6-16.85Q35-14 28.6-10.05L28.6-10.05 28.2-9.95Q28.15-9.95 28.15-10L28.15-10Q28.15-10.2 29.5-11.35L29.5-11.35 32.3-13.65Q35.9-16.8 37.55-18.8L37.55-18.8Q37.2-21.6 35.02-23.48 32.85-25.35 30.05-26.2L30.05-26.2Q28.65-26.55 25.73-26.65 22.8-26.75 22.8-26.85 22.8-26.95 22.9-27.05L22.9-27.05Q25.2-27.8 27.33-27.8 29.45-27.8 32.2-27.15L32.2-27.15Q37.45-25.9 39.55-22.05ZM17.5 1.2L17.5 1.2Q11.75-2.3 9.65-2.3 7.55-2.3 6.8-0.7L6.8-0.7 6.3 0.5Q8 1.85 10.55 1.9L10.55 1.9Q11.05 1.9 11.55 1.9L11.55 1.9Q14.45 1.9 17.5 1.2ZM53.85 0.3L53.85 0.3Q53.6 0.35 52.77 0.35 51.95 0.35 51.12-0.3 50.3-0.95 50.3-1.98 50.3-3 50.67-4.25 51.05-5.5 51.2-6.15L51.2-6.15Q45.45 0.55 42.2 0.55L42.2 0.55Q40.15 0.55 39.95-2L39.95-2Q39.95-2.2 39.95-2.35L39.95-2.35Q39.95-4.5 42.55-8.15L42.55-8.15Q41.1-6.85 39.6-5.15L39.6-5.15Q39.4-4.95 39.1-4.95L39.1-4.95Q38.9-4.95 38.9-5.2 38.9-5.45 39.35-6.05L39.35-6.05 46.25-14.15Q47.55-15.65 48.9-15.65 50.25-15.65 50.25-14.75L50.25-14.75Q50.25-14.4 49.95-14.1L49.95-14.1Q47.95-12.25 44.92-7.95 41.9-3.65 41.9-1.6L41.9-1.6Q41.9-0.7 42.5-0.7L42.5-0.7Q44.6-0.7 48.6-4.85L48.6-4.85Q50-6.25 53.8-11.03 57.6-15.8 58.8-15.8L58.8-15.8Q60.6-15.8 60.6-14.4L60.6-14.4Q60.6-13.9 58.5-11.5L58.5-11.5Q55.65-8.05 54.15-5.88 52.65-3.7 52.65-2.35 52.65-1 53.4-1L53.4-1Q53.75-1 54.2-1.2L54.2-1.2Q57.65-2.7 62.45-8.2L62.45-8.2Q62.75-8.55 63.05-8.55 63.35-8.55 63.35-8.22 63.35-7.9 63-7.5L63-7.5Q60.85-5 57.95-2.48 55.05 0.05 53.85 0.3ZM71.95-20.4Q72.7-20.4 73.37-19.93 74.05-19.45 74.05-18.8 74.05-18.15 73.42-17.68 72.8-17.2 72.05-17.2 71.3-17.2 70.67-17.75 70.05-18.3 70.05-19L70.05-19Q70.05-20.4 71.95-20.4L71.95-20.4ZM62.9 0.55L62.9 0.55Q60.35 0.55 60.35-2.75L60.35-2.75Q60.35-5.45 63.3-10.23 66.25-15 68.05-15.05L68.05-15.05Q68.55-15.05 69.17-14.65 69.8-14.25 69.8-13.85L69.8-13.85Q69.55-13.5 69.2-13.08 68.84-12.65 68.45-12.15 68.05-11.65 67.34-10.73 66.65-9.8 66-8.95L66-8.95Q62.25-4.1 62.25-2.27 62.25-0.45 63.5-0.45L63.5-0.45Q64.55-0.45 66.34-1.6L66.34-1.6Q70.55-4.2 73-7.3L73-7.3Q73.9-8.45 74.22-8.45 74.55-8.45 74.55-8.05 74.55-7.65 73.4-6.45 72.25-5.25 71.57-4.55 70.9-3.85 70.65-3.63 70.4-3.4 69.72-2.78 69.05-2.15 68.7-1.9 68.34-1.65 67.7-1.15 67.05-0.65 66.55-0.43 66.05-0.2 65.4 0.1L65.4 0.1Q64.34 0.55 62.9 0.55ZM76.19 0.65L76.19 0.65Q75.64 0.65 75.19 0.5L75.19 0.5Q71.99-0.4 71.99-3.1L71.99-3.1Q71.99-6.6 76.39-11.2 80.79-15.8 84.29-15.8L84.29-15.8Q85.44-15.8 86.17-15.18 86.89-14.55 86.89-13.48 86.89-12.4 86.24-11.23 85.59-10.05 84.29-10.05 82.99-10.05 82.99-10.85L82.99-10.85Q82.99-11.4 83.67-12.53 84.34-13.65 84.34-13.73 84.34-13.8 84.19-13.8L84.19-13.8Q82.79-13.65 80.37-11.8 77.94-9.95 77.04-8.7L77.04-8.7 75.09-5.85Q74.59-5.05 74.37-3.95 74.14-2.85 74.14-2.3 74.14-1.75 74.77-1.05 75.39-0.35 76.54-0.35L76.54-0.35Q79.04-0.35 82.74-3.28 86.44-6.2 88.44-8.85L88.44-8.85Q88.69-9.15 89.04-9.15 89.39-9.15 89.39-8.95 89.39-8.75 89.14-8.45L89.14-8.45Q86.39-4.8 82.57-2.08 78.74 0.65 76.19 0.65ZM96.79 0.6L96.79 0.6Q92.84 0.6 90.09-5.65L90.09-5.65Q89.39-4.6 86.94 0.25L86.94 0.25Q85.14-0.45 85.14-1.65L85.14-1.65Q85.14-3.8 91.59-13.45 98.04-23.1 100.44-24.8L100.44-24.8Q100.64-24.95 101.24-24.95L101.24-24.95Q102.79-24.95 102.79-24.15L102.79-24.15Q102.79-23.75 99.32-19.65 95.84-15.55 95.44-14.7L95.44-14.7Q99.99-17.05 102.69-17.05L102.69-17.05Q104.24-17.05 105.34-15.8L105.34-15.8Q106.39-14.75 106.39-13.65L106.39-13.65Q106.39-13.5 106.39-13.35L106.39-13.35Q105.99-10.5 102.39-8.65L102.39-8.65Q99.49-7.1 96.99-7.1 94.49-7.1 93.49-7.75L93.49-7.75Q93.19-7.8 93.02-7.6 92.84-7.4 92.94-7.1L92.94-7.1Q94.34-0.9 97.59-0.9L97.59-0.9Q99.29-0.9 101.97-2.8 104.64-4.7 107.54-8.15L107.54-8.15Q107.89-8.5 108.17-8.5 108.44-8.5 108.44-8.22 108.44-7.95 108.09-7.45L108.09-7.45Q105.39-4.15 102.99-2.25L102.99-2.25Q99.34 0.6 96.79 0.6ZM103.99-14.7L103.99-14.7Q103.99-15.1 103.54-15.5 103.09-15.9 102.59-15.9L102.59-15.9Q99.89-15.9 96.12-13.65 92.34-11.4 91.49-8.55L91.49-8.55Q91.94-8.55 93.89-8.4L93.89-8.4Q96.14-8.4 99.79-10.25L99.79-10.25Q103.99-12.35 103.99-14.7ZM134.84-13.5L134.84-13.5Q132.34-13.5 130.19-13.9L130.19-13.9Q130.89-11.7 133.14-3.95L133.14-3.95Q133.84-1.7 135.34 0.6L135.34 0.6Q137.39 3.55 139.14 3.55L139.14 3.55Q141.24 3.55 142.64-0.7L142.64-0.7Q142.89-1.7 143.16-1.7 143.44-1.7 143.56-1.13 143.69-0.55 143.69-0.35L143.69-0.35Q143.69 0.9 142.29 2.85L142.29 2.85Q140.44 5.6 138.24 5.6 136.04 5.6 134.19 3.4 132.34 1.2 130.56-4.63 128.79-10.45 128.79-12.05L128.79-12.05Q128.79-12.3 128.84-12.45L128.84-12.45Q122.84-4.5 120.24-1.95L120.24-1.95Q114.44 3.7 108.39 3.7L108.39 3.7Q104.14 3.7 104.14 0.5L104.14 0.5Q104.14-1.1 105.14-3.03 106.14-4.95 107.59-6.4 109.04-7.85 110.14-7.85L110.14-7.85Q110.34-7.85 110.34-7.75L110.34-7.75Q110.34-7.5 109.09-6.5 107.84-5.5 106.69-3.68 105.54-1.85 105.54-0.35L105.54-0.35Q105.54 2.3 109.09 2.3L109.09 2.3Q115.74 2.3 127.39-13.3L127.39-13.3Q128.04-14.15 128.49-14.5L128.49-14.5 127.69-14.8Q127.04-14.55 126.64-14.55L126.64-14.55Q125.59-14.55 125.59-15.4L125.59-15.4Q125.59-16.55 127.14-16.9L127.14-16.9Q127.34-16.95 127.49-16.95L127.49-16.95Q128.39-16.95 129.59-16.05L129.59-16.05Q133.99-20.95 134.09-21.05L134.09-21.05Q137.74-24.8 139.01-24.8 140.29-24.8 140.29-23.7L140.29-23.7Q140.29-23.2 140.06-22.75 139.84-22.3 139.54-22.3L139.54-22.3Q139.24-22.2 139.24-22.6L139.24-22.6Q139.24-22.8 139.54-23.2L139.54-23.2Q139.59-23.9 139.09-23.9L139.09-23.9Q137.49-23.9 131.34-15.4L131.34-15.4Q132.84-15.3 133.84-15.3L133.84-15.3Q145.44-15.3 148.34-21.3L148.34-21.3Q148.94-22.6 148.94-23.7L148.94-23.7Q148.94-25.9 146.94-27.5L146.94-27.5Q143.74-30.1 136.54-30.1 129.34-30.1 121.84-26.45L121.84-26.45Q112.74-22 112.74-16L112.74-16Q112.74-14.05 115.19-14.05 117.64-14.05 120.39-15.85 123.14-17.65 124.09-19.4L124.09-19.4Q124.44-20.05 124.76-20.05 125.09-20.05 124.94-19.65L124.94-19.65Q123.99-16.85 120.71-14.88 117.44-12.9 113.89-12.9 110.34-12.9 110.34-15.15L110.34-15.15Q110.34-15.3 110.34-15.5L110.34-15.5Q111.09-22.05 118.36-26.63 125.64-31.2 135.89-31.2L135.89-31.2Q145.44-31.2 149.44-27.9L149.44-27.9Q151.84-25.9 151.84-23.2L151.84-23.2Q151.84-22.05 151.29-20.7L151.29-20.7Q149.74-17.05 144.94-15.28 140.14-13.5 134.84-13.5ZM146.39 0.65L146.39 0.65Q145.84 0.65 145.39 0.5L145.39 0.5Q142.19-0.4 142.19-3.1L142.19-3.1Q142.19-6.6 146.59-11.2 150.99-15.8 154.49-15.8L154.49-15.8Q155.64-15.8 156.36-15.18 157.09-14.55 157.09-13.65L157.09-13.65Q157.09-10.85 152.86-8.3 148.64-5.75 145.99-5.75L145.99-5.75Q145.59-5.75 145.29-5.85L145.29-5.85Q144.54-4.5 144.54-3L144.54-3Q144.54-0.4 147.01-0.4 149.49-0.4 153.44-3.75L153.44-3.75Q156.49-6.2 158.64-8.95L158.64-8.95Q159.09-9.55 159.41-9.55 159.74-9.55 159.74-9.25 159.74-8.95 159.34-8.4L159.34-8.4Q156.64-4.85 152.84-2.1 149.04 0.65 146.39 0.65ZM155.84-13.75L155.84-13.75Q155.84-14.35 154.56-14.35 153.29-14.35 150.94-12.4L150.94-12.4Q147.79-9.8 146.04-6.95L146.04-6.95Q146.34-6.85 146.69-6.85L146.69-6.85Q148.59-6.85 151.76-8.88 154.94-10.9 155.74-13.3L155.74-13.3Q155.84-13.55 155.84-13.75ZM173.28-14.95L173.28-14.95 173.98-15.1Q174.53-15.1 175.03-14.65 175.53-14.2 175.53-13.95 175.53-13.7 172.43-9.13 169.33-4.55 169.33-2.75L169.33-2.75Q169.33-2.6 169.38-2.45L169.38-2.45Q169.63-1.3 170.48-1.3L170.48-1.3Q173.08-1.3 179.98-9.9L179.98-9.9Q180.13-10.1 180.33-10.1 180.53-10.1 180.53-9.73 180.53-9.35 180.08-8.75L180.08-8.75Q173.68-0.2 170.33-0.2L170.33-0.2Q169.88-0.2 169.48-0.35L169.48-0.35Q167.28-1.2 167.28-3.65L167.28-3.65Q167.28-4.5 167.48-5.35L167.48-5.35 164.38-2.35Q161.43 0.25 160.11 0.25 158.78 0.25 157.58-0.6L157.58-0.6Q156.23-1.6 156.23-3.25L156.23-3.25Q156.23-6.9 161.33-11.98 166.43-17.05 170.68-17.05L170.68-17.05Q172.33-17.05 172.88-15.9L172.88-15.9Q173.03-15.5 173.13-15.23 173.23-14.95 173.28-14.95ZM158.33-2.65L158.33-2.65Q158.33-0.85 159.58-0.85L159.58-0.85Q162.48-0.85 167.48-7.2L167.48-7.2 172.78-14.5Q172.38-15.2 171.48-15.2L171.48-15.2Q168.43-15.2 163.38-10.48 158.33-5.75 158.33-2.65ZM193.68-15.15L193.68-15.15Q199.28-24.25 201.48-24.25L201.48-24.25Q201.83-24.25 202.46-24.03 203.08-23.8 203.08-23.35L203.08-23.35Q203.08-23.1 202.83-22.7L202.83-22.7Q198.83-17.8 196.88-15.35L196.88-15.35Q190.98-7.9 190.38-4.65L190.38-4.65Q190.23-3.95 190.23-3.25L190.23-3.25Q190.23-1 192.08-1L192.08-1Q195.78-1 201.73-7.85L201.73-7.85Q202.23-8.35 202.58-8.43 202.93-8.5 202.93-8.25 202.93-8 202.63-7.65L202.63-7.65Q196.83-0.7 192.33 0.1L192.33 0.1Q192.08 0.15 191.63 0.15L191.63 0.15Q190.08 0.15 189.31-0.93 188.53-2 188.53-3.25L188.53-3.25Q188.53-4.65 189.08-6.35L189.08-6.35 185.03-2.3Q182.28 0.25 180.71 0.25 179.13 0.25 178.08-0.6L178.08-0.6Q176.83-1.55 176.83-3.25L176.83-3.25Q176.83-6.9 181.93-11.98 187.03-17.05 191.28-17.05L191.28-17.05Q192.68-17.05 193.23-16.3L193.23-16.3Q193.43-16.05 193.68-15.15ZM178.93-2.65L178.93-2.65Q178.93-0.85 180.18-0.85L180.18-0.85Q182.33-0.85 187.33-6.75L187.33-6.75Q188.23-7.8 193.33-14.6L193.33-14.6Q192.98-15.2 192.13-15.2L192.13-15.2Q189.03-15.2 183.98-10.48 178.93-5.75 178.93-2.65Z" fill="#222222" data-fill-palette-color="primary"></path></g></svg></g></svg></g></svg></g></svg></g><g><svg viewBox="0 0 113.97832463595839 113.97832463595839" height="113.97832463595839" width="113.97832463595839"><g><svg xmlns="http://www.w3.org/2000/svg" xmlns:xlink="http://www.w3.org/1999/xlink" version="1.1" x="0" y="0" viewBox="1 1 62 62" style="enable-background:new 0 0 64 64;" xml:space="preserve" height="113.97832463595839" width="113.97832463595839" class="icon-icon-0" data-fill-palette-color="accent" id="icon-0"><g fill="#f500a2" data-fill-palette-color="accent"><path d="M59 9V5h-4V1H1v54h4v4h4v4h54V9H59zM61 17H11v-6h50V17zM3 53V3h50v2H5v48H3zM7 57V7h50v2H9v48H7zM11 61V19h50v42H11z" fill="#f500a2" data-fill-palette-color="accent"></path><rect x="13" y="13" width="2" height="2" fill="#f500a2" data-fill-palette-color="accent"></rect><rect x="17" y="13" width="2" height="2" fill="#f500a2" data-fill-palette-color="accent"></rect><rect x="21" y="13" width="2" height="2" fill="#f500a2" data-fill-palette-color="accent"></rect><path d="M13 41h4v4h3.813c0.25 0.762 0.554 1.499 0.91 2.205l-2.694 2.694 7.071 7.071 2.694-2.694c0.706 0.355 1.444 0.66 2.206 0.91V59h10v-3.813c0.762-0.25 1.5-0.555 2.206-0.91l2.694 2.694 7.071-7.071-2.694-2.694c0.356-0.706 0.66-1.443 0.91-2.205H55v-4h4v-2H13V41zM53 43h-3.317l-0.203 0.733c-0.308 1.116-0.747 2.179-1.305 3.16l-0.376 0.662 2.343 2.344-4.243 4.243-2.343-2.344-0.662 0.377c-0.981 0.557-2.045 0.996-3.161 1.305L39 53.684V57h-6v-3.316l-0.733-0.203c-1.116-0.309-2.18-0.748-3.161-1.305l-0.662-0.377-2.343 2.344-4.243-4.243 2.343-2.344-0.376-0.662c-0.558-0.981-0.997-2.044-1.305-3.16L22.317 43H19v-2h8.059c0.5 4.493 4.317 8 8.941 8s8.442-3.507 8.941-8H53V43zM29.08 41h13.84c-0.488 3.386-3.401 6-6.92 6S29.568 44.386 29.08 41z" fill="#f500a2" data-fill-palette-color="accent"></path><polygon points="28.707,35.293 22.414,29 28.707,22.707 27.293,21.293 19.586,29 27.293,36.707  " fill="#f500a2" data-fill-palette-color="accent"></polygon><polygon points="44.707,36.707 52.414,29 44.707,21.293 43.293,22.707 49.586,29 43.293,35.293  " fill="#f500a2" data-fill-palette-color="accent"></polygon><rect x="27.398" y="28" transform="matrix(0.581 -0.8139 0.8139 0.581 -8.5193 41.4511)" width="17.205" height="2" fill="#f500a2" data-fill-palette-color="accent"></rect></g></svg></g></svg></g></svg></g><defs></defs></svg><rect width="395.52" height="85.22382991726396" fill="none" stroke="none" visibility="hidden"></rect></g></svg></g></svg>